<svg width="73" height="73" viewBox="0 0 73 73" fill="none" xmlns="http://www.w3.org/2000/svg">
<path d="M44.7568 57.2916H57.2568M57.2568 57.2916H69.7568M57.2568 57.2916V44.7916M57.2568 57.2916V69.7916" stroke="#071074" stroke-width="6.25" stroke-linecap="round" stroke-linejoin="round"/>
<path d="M3.125 25.625V5.625C3.125 4.96196 3.38839 4.32607 3.85723 3.85723C4.32607 3.38839 4.96196 3.125 5.625 3.125H25.625C26.288 3.125 26.9239 3.38839 27.3928 3.85723C27.8616 4.32607 28.125 4.96196 28.125 5.625V25.625C28.125 26.288 27.8616 26.9239 27.3928 27.3928C26.9239 27.8616 26.288 28.125 25.625 28.125H5.625C4.96196 28.125 4.32607 27.8616 3.85723 27.3928C3.38839 26.9239 3.125 26.288 3.125 25.625ZM3.125 67.2917V47.2917C3.125 46.6286 3.38839 45.9927 3.85723 45.5239C4.32607 45.0551 4.96196 44.7917 5.625 44.7917H25.625C26.288 44.7917 26.9239 45.0551 27.3928 45.5239C27.8616 45.9927 28.125 46.6286 28.125 47.2917V67.2917C28.125 67.9547 27.8616 68.5906 27.3928 69.0594C26.9239 69.5283 26.288 69.7917 25.625 69.7917H5.625C4.96196 69.7917 4.32607 69.5283 3.85723 69.0594C3.38839 68.5906 3.125 67.9547 3.125 67.2917ZM44.7917 25.625V5.625C44.7917 4.96196 45.0551 4.32607 45.5239 3.85723C45.9927 3.38839 46.6286 3.125 47.2917 3.125H67.2917C67.9547 3.125 68.5906 3.38839 69.0594 3.85723C69.5283 4.32607 69.7917 4.96196 69.7917 5.625V25.625C69.7917 26.288 69.5283 26.9239 69.0594 27.3928C68.5906 27.8616 67.9547 28.125 67.2917 28.125H47.2917C46.6286 28.125 45.9927 27.8616 45.5239 27.3928C45.0551 26.9239 44.7917 26.288 44.7917 25.625Z" stroke="#071074" stroke-width="6.25"/>
</svg>
